<?xml version="1.0" encoding="UTF-8" standalone="no"?>
<!-- Created with Inkscape (http://www.inkscape.org/) -->

<svg
   xmlns:dc="http://purl.org/dc/elements/1.1/"
   xmlns:cc="http://creativecommons.org/ns#"
   xmlns:rdf="http://www.w3.org/1999/02/22-rdf-syntax-ns#"
   xmlns:svg="http://www.w3.org/2000/svg"
   xmlns="http://www.w3.org/2000/svg"
   xmlns:sodipodi="http://sodipodi.sourceforge.net/DTD/sodipodi-0.dtd"
   xmlns:inkscape="http://www.inkscape.org/namespaces/inkscape"
   id="svg2"
   version="1.1"
   inkscape:version="0.48.3.1 r9886"
   width="175"
   height="133.75"
   xml:space="preserve"
   sodipodi:docname="BMBF_CMYK_Gef_L_e-crop.pdf"><metadata
     id="metadata8"><rdf:RDF><cc:Work
         rdf:about=""><dc:format>image/svg+xml</dc:format><dc:type
           rdf:resource="http://purl.org/dc/dcmitype/StillImage" /><dc:title></dc:title></cc:Work></rdf:RDF></metadata><defs
     id="defs6"><clipPath
       clipPathUnits="userSpaceOnUse"
       id="clipPath18"><path
         d="M 0,0 197,0 197,151 0,151 0,0 z"
         id="path20" /></clipPath></defs><sodipodi:namedview
     pagecolor="#ffffff"
     bordercolor="#666666"
     borderopacity="1"
     objecttolerance="10"
     gridtolerance="10"
     guidetolerance="10"
     inkscape:pageopacity="0"
     inkscape:pageshadow="2"
     inkscape:window-width="1600"
     inkscape:window-height="853"
     id="namedview4"
     showgrid="false"
     inkscape:zoom="1.764486"
     inkscape:cx="87.5"
     inkscape:cy="66.875"
     inkscape:window-x="-2"
     inkscape:window-y="24"
     inkscape:window-maximized="1"
     inkscape:current-layer="g10" /><g
     id="g10"
     inkscape:groupmode="layer"
     inkscape:label="BMBF_CMYK_Gef_L_e-crop"
     transform="matrix(1.25,0,0,-1.25,0,133.75)"><path
       d="m 36.7961,50.5613 4.4285,0 0,-25.0879 -4.4285,0 0,25.0879"
       style="fill:#ed1c24;fill-opacity:1;fill-rule:nonzero;stroke:none"
       id="path26"
       inkscape:connector-curvature="0" /><path
       d="m 36.7961,25.4734 4.4285,0 0,-25.0007 -4.4285,0 0,25.0007"
       style="fill:#f2cf04;fill-opacity:1;fill-rule:nonzero;stroke:none"
       id="path28"
       inkscape:connector-curvature="0" /><path
       d="m 36.7961,75.473 4.4285,0 0,-24.9984 -4.4285,0 0,24.9984"
       style="fill:#231f20;fill-opacity:1;fill-rule:nonzero;stroke:none"
       id="path30"
       inkscape:connector-curvature="0" /><path
       d="m 11.5059,50.4695 0,0 z m 7e-4,-0.0105 0,0 z m -0.0015,-0.0028 0,0 z m 0,0.0184 0,0 z m 11.4754,20.7715 c 0,1.425 -1.0364,2.5519 -1.4004,2.8703 l -0.2625,-0.0598 c 0.3875,-0.4734 1.0711,-1.2668 1.0711,-2.3152 0,-2.0664 -2.1825,-3.8613 -4.6746,-3.8945 0.0195,-0.2129 0.0171,-0.4004 0.0171,-0.561 0,-0.2945 -0.0183,-0.5839 -0.0535,-0.8648 2.8274,0.0508 5.3028,2.3496 5.3028,4.825 l 0,0 z M 19.082,54.1438 c -1.207,0 -1.4687,0.1269 -1.7871,0.1269 -0.2043,0 -0.3984,-0.0195 -0.3984,-0.3098 0,-0.2011 0.2258,-0.4941 0.4297,-0.6472 0.2843,0.2808 0.6738,0.3425 1.3027,0.3425 0.2941,0 0.6953,-0.0578 0.8723,-0.0808 -0.0246,-0.1738 -0.0598,-0.3984 -0.0598,-0.7149 0,-0.1664 0.0059,-0.3605 0.0059,-0.5656 0,-0.7117 -0.1043,-1.0898 -0.3528,-1.3761 0.0539,-0.0333 0.1965,-0.0626 0.2825,-0.0626 0.4621,0 0.58,0.2368 0.58,1.436 0,0.3633 0.0293,0.6992 0.0293,0.7848 0.6453,-0.493 1.3047,-1.3719 1.3047,-2.0079 0.2102,0.1086 0.459,0.4282 0.459,0.6664 0,0.4333 -0.7234,1.0782 -1.4922,1.8551 0.1074,0.0266 0.3926,0.1074 0.627,0.1074 0.6027,0 1.091,-0.0996 1.3742,-0.4335 0.1121,0.121 0.2051,0.4894 0.2051,0.6964 0,0.3614 -0.2075,0.3496 -0.3579,0.3496 -0.6421,0 -1.4351,-0.1003 -2.0039,-0.1941 -0.2058,0.2754 -1.5222,2.0555 -1.8628,3.0059 -0.0989,0.0332 -0.175,0.0613 -0.3364,0.0613 -0.3164,0 -0.3992,-0.2207 -0.4801,-0.5234 0.7247,-0.8797 1.4215,-1.8372 1.659,-2.5164 l 0,0 z m -7.205,2.5164 c -0.0821,0.3027 -0.1622,0.5234 -0.4793,0.5234 -0.1633,0 -0.2395,-0.0281 -0.3352,-0.0613 -0.3437,-0.9504 -1.6582,-2.7305 -1.866,-3.0059 -0.5656,0.0938 -1.3613,0.1941 -2.0024,0.1941 -0.1511,0 -0.3582,0.0118 -0.3582,-0.3496 0,-0.207 0.0918,-0.5754 0.2063,-0.6964 0.282,0.3339 0.7715,0.4335 1.3726,0.4335 0.2368,0 0.52,-0.0808 0.6262,-0.1074 C 8.2734,52.8137 7.55,52.1688 7.55,51.7355 c 0,-0.2382 0.2488,-0.5578 0.4598,-0.6664 0,0.636 0.6582,1.5149 1.3027,2.0079 0,-0.0856 0.0305,-0.4215 0.0305,-0.7848 0,-1.1992 0.1187,-1.436 0.5808,-1.436 0.084,0 0.2266,0.0293 0.2824,0.0626 -0.2492,0.2863 -0.3539,0.6644 -0.3539,1.3761 0,0.2051 0.0082,0.3992 0.0082,0.5656 0,0.3165 -0.0375,0.5411 -0.0617,0.7149 0.1758,0.023 0.5782,0.0808 0.8723,0.0808 0.6289,0 1.0184,-0.0617 1.3035,-0.3425 0.2039,0.1531 0.4297,0.4461 0.4297,0.6472 0,0.2903 -0.1941,0.3098 -0.3992,0.3098 -0.3196,0 -0.5793,-0.1269 -1.7871,-0.1269 0.2371,0.6792 0.9336,1.6367 1.659,2.5164 l 0,0 z M 6.9109,71.7414 c 0,1.0484 0.6836,1.8418 1.0703,2.3152 L 7.7219,74.1164 C 7.3547,73.798 6.3203,72.6711 6.3203,71.2461 c 0,-2.4922 2.5098,-4.8066 5.3633,-4.8262 -0.0305,0.2703 -0.0481,0.5574 -0.0481,0.866 0,0.1914 0.0083,0.3813 0.0247,0.5586 -2.5223,0 -4.7493,1.811 -4.7493,3.8969 l 0,0 z m 7.6684,1.9195 c 0.1309,0.2993 0.3047,0.6543 0.3047,1.0453 0,1.0808 -0.8965,1.5968 -2.0969,1.5968 -0.616,0 -0.9277,-0.199 -0.9277,-0.4 0,-0.2 0.2043,-0.639 0.2824,-0.775 0.2215,0.099 0.6227,0.217 0.8543,0.217 0.8242,0 1.4394,-0.9251 1.5832,-1.6841 l 0,0 z m 0.5895,1.3831 c 0.7023,-0.137 1.1796,0.76 0.5136,0.919 0.0918,-0.295 -0.3562,-0.504 -0.3562,-0.504 0,0 -0.1707,0.396 0.0508,0.621 -0.409,0.2 -0.5118,-0.042 -0.5196,-0.294 0.1602,-0.215 0.2649,-0.465 0.3114,-0.742 l 0,0 z m 2.2714,-6.1417 c 0.1125,-0.0066 0.2192,-0.0128 0.3313,-0.0128 1.9746,0 3.9336,1.2765 3.9336,2.9132 0,0.8731 -0.3926,1.4832 -0.8781,2.1594 -0.284,-0.0473 -0.5426,-0.0742 -0.7469,-0.0742 -0.8946,0 -1.3797,0.4805 -1.4153,0.9512 0,0.4239 0.345,0.7439 0.8801,0.7439 0.8301,0 2.3446,-0.7771 3.8699,-0.7771 -0.1492,-0.1133 -0.3992,-0.2329 -0.7,-0.3457 0.8946,-0.8047 1.4914,-1.8848 1.72,-3.0383 l 2.3386,-3.7422 c 0.3914,-0.625 1.2227,-1.8535 2.4739,-2.8125 -1.5118,0 -2.5168,-0.036 -3.7953,1.9875 l -1.1981,1.918 C 24.166,68.5246 24.0559,68.282 23.9277,68.0461 l 2.3836,-3.8164 c 0.3965,-0.6313 1.2168,-1.8508 2.4746,-2.8137 -1.5132,0 -2.5144,-0.0359 -3.7949,1.9871 l -2.0515,3.2856 c -0.1536,-0.1621 -0.3157,-0.3223 -0.4864,-0.4766 l 2.8953,-4.634 c 0.3996,-0.6347 1.2168,-1.8469 2.4758,-2.8125 -1.5129,0 -2.5156,-0.0351 -3.7961,1.9895 l -2.8211,4.5156 c -0.1875,-0.1184 -0.3769,-0.2309 -0.5722,-0.3391 l 3.4433,-5.5128 c 0.3977,-0.6329 1.2149,-1.8465 2.4746,-2.8126 -1.5117,0 -2.5168,-0.0347 -3.7929,1.9883 l -3.5481,5.6782 C 19.002,64.1902 18.7883,64.1152 18.5715,64.0461 l 4.0097,-6.4184 c 0.3907,-0.6211 1.2286,-1.8531 2.4723,-2.8101 -1.5113,0 -2.5152,-0.0364 -3.793,1.9883 l -4.2722,6.8379 -0.1309,-0.0239 c -0.1164,-0.3687 -0.1965,-0.7144 -0.1965,-1.0586 0,-2.148 1.4094,-4.0457 3.1028,-5.5105 -0.1094,-0.0457 -0.2981,-0.0645 -0.4727,-0.0645 -0.3476,0 -0.5742,0.0203 -0.7336,0.0481 0.3938,-0.8926 1.2356,-2.043 1.6614,-2.6387 0.5539,0.0992 1.3605,0.1785 1.8874,0.1785 0.552,0 0.6126,-0.323 0.6126,-0.6133 0,-0.5 -0.2344,-0.9035 -0.5059,-1.125 -0.1016,0.2586 -0.3074,0.6004 -1.3281,0.6004 l -0.1036,-0.0039 c 0.3,-0.3328 1.2325,-1.0879 1.2325,-1.6969 0,-0.4015 -0.4414,-1.0043 -1.0242,-1.0043 0.0371,0.1293 0.03,0.2493 0.03,0.3379 0,0.4922 -0.4355,1.0688 -0.8039,1.47 0.0102,-0.1203 0.0051,-0.1067 0.0051,-0.2469 0,-1.1633 -0.1047,-1.6977 -0.8437,-1.6977 -0.3625,0 -0.6133,0.1993 -0.6985,0.2578 0.4785,0.4426 0.5051,0.7915 0.5051,1.4426 l -0.0051,0.5656 c -8e-4,0.1485 0.0024,0.3457 0.0246,0.4891 -0.2644,0.0359 -0.3691,0.0352 -0.5742,0.0352 0,0 -1.0508,0.0832 -1.3027,-0.4618 -0.284,0.2594 -0.6973,0.6278 -0.6973,1.0379 0,0.2688 0.1262,0.5735 0.666,0.5735 0.2051,0 0.8496,-0.1274 1.3887,-0.1274 -0.1445,0.3227 -0.7898,1.2641 -1.3469,1.9504 -0.0847,-0.2644 -0.2176,-0.5535 -0.5105,-0.7871 -0.0403,0.4402 -0.2981,1.8293 -0.9856,2.6418 -0.0801,-0.5488 -0.189,-1.1125 -0.189,-2.3 0,-2.8914 0.6961,-5.0281 2.1726,-5.4375 -0.1914,-0.3351 -0.5976,-0.6355 -1.0195,-0.6355 -0.5402,0 -0.834,0.6113 -1.1348,1.189 -0.1554,-0.4273 -0.5859,-1.4676 -1.0207,-1.4676 -0.4312,0 -0.8633,1.0403 -1.0191,1.4676 -0.3,-0.5777 -0.5942,-1.189 -1.136,-1.189 -0.4199,0 -0.8269,0.3004 -1.0175,0.6355 1.4754,0.4094 2.1718,2.5461 2.1718,5.4375 0,1.1875 -0.1086,1.7512 -0.1894,2.3 -0.6863,-0.8125 -0.9453,-2.2016 -0.9856,-2.6418 -0.2925,0.2336 -0.4254,0.5227 -0.5093,0.7871 -0.5579,-0.6863 -1.2024,-1.6277 -1.3481,-1.9504 0.5402,0 1.184,0.1274 1.3891,0.1274 0.5398,0 0.6679,-0.3047 0.6679,-0.5735 0,-0.4101 -0.4152,-0.7785 -0.6984,-1.0379 -0.2527,0.545 -1.3035,0.4618 -1.3035,0.4618 -0.2031,0 -0.3086,7e-4 -0.5742,-0.0352 0.0222,-0.1434 0.0269,-0.3406 0.023,-0.4891 l -0.0027,-0.5656 c 0,-0.6511 0.0246,-1 0.5051,-1.4426 -0.0864,-0.0585 -0.3364,-0.2578 -0.6985,-0.2578 -0.7402,0 -0.8457,0.5344 -0.8457,1.6977 0,0.1402 -0.0039,0.1266 0.0071,0.2469 -0.3704,-0.4012 -0.8047,-0.9778 -0.8047,-1.47 0,-0.0886 -0.0063,-0.2086 0.0293,-0.3379 -0.5813,0 -1.0227,0.6028 -1.0227,1.0043 0,0.609 0.9336,1.3641 1.2317,1.6969 l -0.104,0.0039 c -1.0195,0 -1.2261,-0.3418 -1.3281,-0.6004 -0.2722,0.2215 -0.5066,0.625 -0.5066,1.125 0,0.2903 0.0625,0.6133 0.614,0.6133 0.5286,0 1.334,-0.0793 1.8879,-0.1785 0.4239,0.5957 1.2657,1.7461 1.659,2.6387 -0.1582,-0.0278 -0.3824,-0.0481 -0.732,-0.0481 -0.1738,0 -0.3645,0.0188 -0.4707,0.0645 1.6914,1.4648 3.1004,3.3625 3.1004,5.5105 0,0.3442 -0.0789,0.6899 -0.1961,1.0586 L 12.3137,63.6438 8.0398,56.8059 C 6.7617,54.7812 5.759,54.8176 4.2473,54.8176 c 1.2437,0.957 2.0808,2.189 2.4715,2.8101 l 4.0097,6.4184 C 10.5117,64.1152 10.3,64.1902 10.0891,64.2727 L 6.5422,58.5945 C 5.2629,56.5715 4.259,56.6062 2.748,56.6062 c 1.2586,0.9661 2.075,2.1797 2.4727,2.8126 L 8.666,64.9316 C 8.4695,65.0398 8.2793,65.1523 8.093,65.2707 L 5.2703,60.7551 C 3.991,58.7305 2.9895,58.7656 1.4766,58.7656 c 1.2589,0.9656 2.0769,2.1778 2.4746,2.8125 l 2.8957,4.634 C 6.6758,66.3664 6.5137,66.5266 6.3613,66.6887 L 4.3098,63.4031 C 3.0293,61.3801 2.0266,61.416 0.5145,61.416 c 1.2558,0.9629 2.0773,2.1824 2.475,2.8137 l 2.3828,3.8164 C 5.2449,68.282 5.1355,68.5246 5.0461,68.7727 l -1.1984,-1.918 c -1.2786,-2.0235 -2.2825,-1.9875 -3.793,-1.9875 1.2512,0.959 2.0801,2.1875 2.4734,2.8125 l 2.3379,3.7422 c 0.2278,1.1535 0.8242,2.2336 1.7192,3.0383 -0.2993,0.1128 -0.55,0.2324 -0.7004,0.3457 1.5261,0 3.039,0.7761 3.8703,0.7761 0.5371,0 0.8797,-0.319 0.8797,-0.7429 -0.0332,-0.4707 -0.5203,-0.9512 -1.4153,-0.9512 -0.2027,0 -0.4629,0.0269 -0.7476,0.0742 -0.4844,-0.6762 -0.8774,-1.2863 -0.8774,-2.1594 0,-1.6367 1.959,-2.9132 3.936,-2.9132 0.1113,0 0.2175,0.0062 0.3289,0.0128 0.3918,1.3262 1.2246,2.1961 1.8906,3.0469 -0.798,0.291 -1.6875,1.0488 -1.6875,1.3914 0.1008,0.059 1.6301,-0.4218 1.7883,-0.4644 0.032,-0.009 0.0652,-0.011 0.1012,0 0.1867,0.0562 0.3418,0.3281 0.3418,0.3562 -0.1629,0.0266 -1.1219,0.1516 -1.7782,0.3899 -0.498,0.1816 -0.75,0.5125 -0.75,0.6382 0.1594,0.0254 0.7664,-0.2925 1.6574,-0.2925 0.329,0 0.3934,0.0125 0.7208,0.0527 -0.2305,0.5469 -0.6626,1.0093 -1.1477,1.0093 -0.1961,0 -0.6231,-0.1218 -0.9805,-0.2995 -0.2488,0.3855 -0.4676,0.8945 -0.4676,1.1725 0,0.327 0.3243,0.712 1.2391,0.712 0.2559,0 0.4949,-0.022 0.718,-0.063 0.1773,-0.033 0.3277,-0.073 0.4898,-0.137 -0.0137,0.021 -0.0203,0.071 -0.0203,0.115 0,0.127 0.1145,0.261 0.5449,0.261 0.7532,0 1.5243,-0.247 2.4715,-0.247 0.2453,0 0.4113,0.008 0.5539,0.067 -0.0613,-0.188 -0.3269,-0.465 -0.5715,-0.69 0.1496,-0.207 0.5422,-0.702 0.5422,-1.5038 0,-1.2883 -0.8496,-2.3508 -0.8496,-3.6527 0,-0.7743 0.5957,-1.4547 0.7742,-1.8622 l 0,0"
       style="fill:#231f20;fill-opacity:1;fill-rule:nonzero;stroke:none"
       id="path32"
       inkscape:connector-curvature="0" /><path
       d="m 53.6309,38.9895 c 0.1105,-2.2833 -0.7571,-2.7168 -1.4571,-2.7168 -0.7695,0 -1.1054,0.616 -1.1054,1.3027 0,1.4976 1.4699,1.3992 2.5625,1.4141 l 0,0 z m 0.0285,-3.5149 1.2594,0 c -0.0836,0.5461 -0.1407,1.1199 -0.1407,1.6797 l 0,3.4023 c 0,1.1907 -0.4773,2.1282 -2.2969,2.1282 -1.4976,0 -2.3367,-0.5461 -2.3921,-2.1282 l 1.2449,0 c -0.0703,0.7434 0.3371,1.2598 1.1062,1.2598 1.2317,0 1.2192,-1.0215 1.1907,-1.959 -1.6102,0.041 -3.7121,-0.0554 -3.7121,-2.198 0,-1.3594 0.4359,-2.3242 1.9328,-2.3242 0.8828,0 1.4289,0.3496 1.7793,1.1621 l 0.0285,0 0,-1.0227"
       style="fill:#231f20;fill-opacity:1;fill-rule:nonzero;stroke:none"
       id="path34"
       inkscape:connector-curvature="0" /><path
       d="m 62.0012,35.4746 0,4.9004 c 0,1.3996 -0.3774,2.3098 -1.8879,2.3098 -0.9102,0 -1.4422,-0.2524 -1.8914,-1.05 l -0.0559,0 0,0.909 -1.2168,0 c 0.0403,-0.4891 0.0684,-0.9774 0.0684,-1.4696 l 0,-5.5996 1.1484,0 0,4.1875 c 0,0.9656 0.1824,2.0852 1.4426,2.0852 0.9805,0 1.2461,-0.6172 1.2461,-1.3723 l 0,-4.9004 1.1465,0 0,0"
       style="fill:#231f20;fill-opacity:1;fill-rule:nonzero;stroke:none"
       id="path36"
       inkscape:connector-curvature="0" /><path
       d="m 67.7566,39.2969 c 0,-1.427 0,-3.0242 -1.2878,-3.0242 -1.4415,0 -1.4415,1.541 -1.4415,2.6043 0,1.8898 0.1668,2.8703 1.3997,2.8703 1.2742,0 1.3296,-1.5129 1.3296,-2.4504 l 0,0 z m 0,2.5343 -0.0425,0 c -0.3911,0.5583 -0.8821,0.8536 -1.5532,0.8536 -2.2832,0 -2.3386,-2.0293 -2.3386,-3.7942 0,-3.1086 1.1496,-3.5554 2.2824,-3.5554 0.743,0 1.2312,0.3218 1.6238,0.98 l 0.0281,0 0,-0.8406 1.1489,0 0,10.1074 -1.1489,0 0,-3.7508"
       style="fill:#231f20;fill-opacity:1;fill-rule:nonzero;stroke:none"
       id="path38"
       inkscape:connector-curvature="0" /><path
       d="m 75.5105,44.4641 1.9465,0 c 0.9942,0 1.3575,-0.8145 1.3575,-1.5411 0,-0.882 -0.4461,-1.6789 -1.3711,-1.6789 l -1.9329,0 0,3.22 z m 1.5141,-4.3418 c 0.4324,0 1.4266,-0.0539 1.5254,-1.2871 0.1109,-1.3438 0.0281,-2.6602 0.3914,-3.3606 l 1.3426,0 c -0.195,0.6301 -0.334,2.2117 -0.348,2.6453 -0.069,2.0305 -0.489,2.4231 -1.6516,2.6059 l 0,0.0269 c 1.1886,0.2094 1.8466,1.1196 1.8466,2.3098 0,1.2598 -0.628,2.5195 -2.422,2.5195 l -3.4863,0 0,-10.1074 1.2878,0 0,4.6477 1.5141,0 0,0"
       style="fill:#231f20;fill-opacity:1;fill-rule:nonzero;stroke:none"
       id="path40"
       inkscape:connector-curvature="0" /><path
       d="m 83.028,39.5066 c 0.013,1.959 0.616,2.3098 1.343,2.3098 0.843,0 1.414,-0.25 1.414,-2.3098 l -2.757,0 0,0 z m 3.978,-0.8679 0,0.6027 c 0,2.3367 -0.506,3.4434 -2.522,3.4434 -2.449,0 -2.688,-1.7075 -2.688,-3.7793 0,-3.1235 1.192,-3.5703 2.688,-3.5703 1.484,0 2.448,0.7136 2.465,2.2812 l -1.26,0 c -0.043,-0.7133 -0.449,-1.3437 -1.232,-1.3437 -0.898,0 -1.429,0.3921 -1.429,2.366 l 3.978,0 0,0"
       style="fill:#231f20;fill-opacity:1;fill-rule:nonzero;stroke:none"
       id="path42"
       inkscape:connector-curvature="0" /><path
       d="m 93.458,37.4914 c 0,2.1543 -3.527,2.1277 -3.527,3.3738 0,0.6153 0.475,0.9512 1.09,0.9512 0.731,0 1.122,-0.3914 1.109,-1.1328 l 1.272,0 c 0.098,1.3996 -0.979,2.0012 -2.239,2.0012 -1.987,0 -2.436,-1.1907 -2.436,-1.9321 0,-2.114 3.528,-2.1422 3.528,-3.4019 0,-0.7285 -0.532,-1.0781 -1.219,-1.0781 -1.162,0 -1.177,0.9531 -1.177,1.3582 l -1.3,0 c -0.042,-1.6243 0.91,-2.2957 2.436,-2.2957 1.399,0 2.463,0.6011 2.463,2.1562 l 0,0"
       style="fill:#231f20;fill-opacity:1;fill-rule:nonzero;stroke:none"
       id="path44"
       inkscape:connector-curvature="0" /><path
       d="m 96.241,39.5066 c 0.013,1.959 0.615,2.3098 1.346,2.3098 0.84,0 1.411,-0.25 1.411,-2.3098 l -2.757,0 0,0 z m 3.978,-0.8679 0,0.6027 c 0,2.3367 -0.506,3.4434 -2.52,3.4434 -2.451,0 -2.688,-1.7075 -2.688,-3.7793 0,-3.1235 1.189,-3.5703 2.688,-3.5703 1.482,0 2.447,0.7136 2.463,2.2812 l -1.26,0 c -0.043,-0.7133 -0.449,-1.3437 -1.232,-1.3437 -0.897,0 -1.429,0.3921 -1.429,2.366 l 3.978,0 0,0"
       style="fill:#231f20;fill-opacity:1;fill-rule:nonzero;stroke:none"
       id="path46"
       inkscape:connector-curvature="0" /><path
       d="m 105.734,38.9895 c 0.112,-2.2833 -0.757,-2.7168 -1.457,-2.7168 -0.77,0 -1.104,0.616 -1.104,1.3027 0,1.4976 1.47,1.3992 2.561,1.4141 l 0,0 z m 0.029,-3.5149 1.26,0 c -0.085,0.5461 -0.142,1.1199 -0.142,1.6797 l 0,3.4023 c 0,1.1907 -0.476,2.1282 -2.295,2.1282 -1.499,0 -2.339,-0.5461 -2.395,-2.1282 l 1.248,0 c -0.071,0.7434 0.334,1.2598 1.103,1.2598 1.233,0 1.221,-1.0215 1.192,-1.959 -1.609,0.041 -3.711,-0.0554 -3.711,-2.198 0,-1.3594 0.434,-2.3242 1.931,-2.3242 0.884,0 1.431,0.3496 1.78,1.1621 l 0.029,0 0,-1.0227"
       style="fill:#231f20;fill-opacity:1;fill-rule:nonzero;stroke:none"
       id="path48"
       inkscape:connector-curvature="0" /><path
       d="m 110.311,42.5438 -1.147,0 0,-7.0692 1.147,0 0,4.1711 c 0,0.9539 0.323,1.9207 1.597,1.9207 0.21,0 0.407,-0.0437 0.617,-0.0723 l 0,1.1907 c -1.12,0 -1.711,-0.125 -2.187,-1.2043 l -0.027,0 0,1.0633"
       style="fill:#231f20;fill-opacity:1;fill-rule:nonzero;stroke:none"
       id="path50"
       inkscape:connector-curvature="0" /><path
       d="m 118.661,40.2781 c 0.07,1.5813 -0.755,2.4067 -2.171,2.4067 -2.448,0 -2.687,-1.7075 -2.687,-3.7793 0,-3.1235 1.191,-3.5703 2.687,-3.5703 0.787,0 2.271,0.5039 2.227,2.4918 l -1.203,0 c 0.043,-1.2743 -0.757,-1.5543 -1.024,-1.5543 -1.188,0 -1.481,0.8257 -1.481,3.123 0,1.9324 0.6,2.3516 1.481,2.3516 0.438,0 1.011,-0.3086 0.982,-1.4692 l 1.189,0 0,0"
       style="fill:#231f20;fill-opacity:1;fill-rule:nonzero;stroke:none"
       id="path52"
       inkscape:connector-curvature="0" /><path
       d="m 125.761,35.4746 0,5.0129 c 0,1.5957 -0.672,2.1973 -1.875,2.1973 -0.926,0 -1.458,-0.2239 -1.919,-1.05 l -0.057,0 0,3.9472 -1.147,0 0,-10.1074 1.147,0 0,4.1594 c 0,1.189 0.293,2.1133 1.441,2.1133 0.981,0 1.26,-0.6172 1.26,-1.4844 l 0,-4.7883 1.15,0 0,0"
       style="fill:#231f20;fill-opacity:1;fill-rule:nonzero;stroke:none"
       id="path54"
       inkscape:connector-curvature="0" /><path
       d="m 52.323,51.2727 c -1.1914,0 -1.4839,0.8257 -1.4839,3.123 0,1.9324 0.6023,2.3516 1.4839,2.3516 0.8813,0 1.4836,-0.4192 1.4836,-2.3516 0,-2.2973 -0.2937,-3.123 -1.4836,-3.123 l 0,0 z m 0,-0.9375 c 1.4985,0 2.6887,0.4468 2.6887,3.5703 0,2.0718 -0.2383,3.7793 -2.6887,3.7793 -2.4507,0 -2.6882,-1.7075 -2.6882,-3.7793 0,-3.1235 1.1894,-3.5703 2.6882,-3.5703 l 0,0"
       style="fill:#231f20;fill-opacity:1;fill-rule:nonzero;stroke:none"
       id="path56"
       inkscape:connector-curvature="0" /><path
       d="m 55.9492,57.5438 0,-0.8668 1.0918,0 0,-6.2024 1.1477,0 0,6.2024 1.4277,0 0,0.8668 -1.4277,0 0,1.205 c 0,0.5735 0.209,1.0918 1.4277,1.0078 l 0,0.8254 c -0.1684,0.0293 -0.3078,0.043 -0.5449,0.043 -1.0227,0 -2.0305,-0.2793 -2.0305,-1.709 l 0,-1.3722 -1.0918,0 0,0"
       style="fill:#231f20;fill-opacity:1;fill-rule:nonzero;stroke:none"
       id="path58"
       inkscape:connector-curvature="0" /><path
       d="m 69.2422,50.4746 0,1.1199 -4.002,0 0,3.5 3.6399,0 0,1.1211 -3.6399,0 0,3.2485 3.9192,0 0,1.1179 -5.2082,0 0,-10.1074 5.291,0 0,0"
       style="fill:#231f20;fill-opacity:1;fill-rule:nonzero;stroke:none"
       id="path60"
       inkscape:connector-curvature="0" /><path
       d="m 74.5645,54.2969 c 0,-1.427 0,-3.0242 -1.2879,-3.0242 -1.4434,0 -1.4434,1.541 -1.4434,2.6043 0,1.8898 0.1695,2.8703 1.4012,2.8703 1.2734,0 1.3301,-1.5129 1.3301,-2.4504 l 0,0 z m 0,2.5343 -0.0418,0 c -0.3926,0.5583 -0.8821,0.8536 -1.5547,0.8536 -2.2817,0 -2.3371,-2.0293 -2.3371,-3.7942 0,-3.1086 1.1464,-3.5554 2.2812,-3.5554 0.741,0 1.2324,0.3218 1.6238,0.98 l 0.0286,0 0,-0.8406 1.1476,0 0,10.1074 -1.1476,0 0,-3.7508"
       style="fill:#231f20;fill-opacity:1;fill-rule:nonzero;stroke:none"
       id="path62"
       inkscape:connector-curvature="0" /><path
       d="m 81.605,52.8547 c 0,-1.1758 -0.769,-1.6379 -1.386,-1.6379 -0.811,0 -1.201,0.5754 -1.201,1.427 l 0,4.9 -1.1496,0 0,-5.3895 c 0,-1.2031 0.6726,-1.8191 1.9026,-1.8191 0.743,0 1.415,0.3496 1.793,0.9929 l 0.041,0 0,-0.8535 1.221,0 c -0.044,0.491 -0.071,0.9805 -0.071,1.4695 l 0,5.5997 -1.15,0 0,-4.6891"
       style="fill:#231f20;fill-opacity:1;fill-rule:nonzero;stroke:none"
       id="path64"
       inkscape:connector-curvature="0" /><path
       d="m 89.713,55.2781 c 0.071,1.5813 -0.757,2.4067 -2.17,2.4067 -2.451,0 -2.688,-1.7075 -2.688,-3.7793 0,-3.1235 1.191,-3.5703 2.688,-3.5703 0.783,0 2.268,0.5039 2.227,2.4918 l -1.205,0 c 0.042,-1.2731 -0.756,-1.5543 -1.022,-1.5543 -1.191,0 -1.484,0.8257 -1.484,3.123 0,1.9324 0.602,2.3516 1.484,2.3516 0.434,0 1.008,-0.3086 0.982,-1.4692 l 1.188,0 0,0"
       style="fill:#231f20;fill-opacity:1;fill-rule:nonzero;stroke:none"
       id="path66"
       inkscape:connector-curvature="0" /><path
       d="m 95.44,53.9895 c 0.111,-2.2833 -0.756,-2.7168 -1.456,-2.7168 -0.77,0 -1.107,0.616 -1.107,1.3027 0,1.4976 1.47,1.3992 2.563,1.4141 l 0,0 z m 0.028,-3.5149 1.259,0 c -0.082,0.5461 -0.139,1.1199 -0.139,1.6797 l 0,3.4023 c 0,1.1907 -0.476,2.1282 -2.297,2.1282 -1.499,0 -2.337,-0.5461 -2.393,-2.1282 l 1.246,0 c -0.072,0.7434 0.336,1.2598 1.105,1.2598 1.233,0 1.219,-1.0215 1.191,-1.959 -1.611,0.041 -3.71,-0.0554 -3.71,-2.198 0,-1.3594 0.434,-2.3242 1.931,-2.3242 0.884,0 1.428,0.3496 1.779,1.1628 l 0.028,0 0,-1.0234"
       style="fill:#231f20;fill-opacity:1;fill-rule:nonzero;stroke:none"
       id="path68"
       inkscape:connector-curvature="0" /><path
       d="m 97.792,57.5438 0,-0.8668 1.162,0 0,-5.0266 c 0,-0.8113 0.489,-1.2598 1.582,-1.2598 0.376,0 0.754,0.084 1.133,0.1133 l 0,0.8801 c -0.252,-0.0278 -0.435,-0.0559 -0.517,-0.0559 -1.05,0 -1.05,0.5762 -1.05,1.0227 l 0,4.3262 1.54,0 0,0.8668 -1.54,0 0,1.8761 -1.148,-0.5168 0,-1.3593 -1.162,0 0,0"
       style="fill:#231f20;fill-opacity:1;fill-rule:nonzero;stroke:none"
       id="path70"
       inkscape:connector-curvature="0" /><path
       d="m 103.834,57.5438 -1.145,0 0,-7.0692 1.145,0 0,7.0692 z m -1.216,1.8078 1.289,0 0,1.2304 -1.289,0 0,-1.2304"
       style="fill:#231f20;fill-opacity:1;fill-rule:nonzero;stroke:none"
       id="path72"
       inkscape:connector-curvature="0" /><path
       d="m 108.314,51.2727 c -1.191,0 -1.484,0.8257 -1.484,3.123 0,1.9324 0.602,2.3516 1.484,2.3516 0.881,0 1.485,-0.4192 1.485,-2.3516 0,-2.2973 -0.293,-3.123 -1.485,-3.123 l 0,0 z m 0,-0.9375 c 1.497,0 2.688,0.4468 2.688,3.5703 0,2.0718 -0.236,3.7793 -2.688,3.7793 -2.451,0 -2.688,-1.7075 -2.688,-3.7793 0,-3.1235 1.192,-3.5703 2.688,-3.5703 l 0,0"
       style="fill:#231f20;fill-opacity:1;fill-rule:nonzero;stroke:none"
       id="path74"
       inkscape:connector-curvature="0" /><path
       d="m 117.807,50.4746 0,4.9004 c 0,1.3996 -0.379,2.3098 -1.89,2.3098 -0.911,0 -1.444,-0.2524 -1.89,-1.05 l -0.056,0 0,0.909 -1.218,0 c 0.041,-0.4891 0.07,-0.9774 0.07,-1.4696 l 0,-5.5996 1.148,0 0,4.1875 c 0,0.9656 0.181,2.0852 1.44,2.0852 0.982,0 1.248,-0.6172 1.248,-1.3723 l 0,-4.9004 1.148,0 0,0"
       style="fill:#231f20;fill-opacity:1;fill-rule:nonzero;stroke:none"
       id="path76"
       inkscape:connector-curvature="0" /><path
       d="m 51.334,65.4746 0,4.6199 3.5285,0 0,1.1211 -3.5285,0 0,3.2485 3.7234,0 0,1.1179 -5.0113,0 0,-10.1074 1.2879,0 0,0"
       style="fill:#231f20;fill-opacity:1;fill-rule:nonzero;stroke:none"
       id="path78"
       inkscape:connector-curvature="0" /><path
       d="m 57.3516,69.5066 c 0.0129,1.959 0.6152,2.3098 1.3425,2.3098 0.8411,0 1.4153,-0.25 1.4153,-2.3098 l -2.7578,0 0,0 z m 3.9754,-0.8679 0,0.6027 c 0,2.3367 -0.504,3.4434 -2.5211,3.4434 -2.4497,0 -2.6887,-1.7075 -2.6887,-3.7793 0,-3.1235 1.1914,-3.5703 2.6887,-3.5703 1.4839,0 2.45,0.7136 2.4648,2.2812 l -1.2602,0 c -0.0425,-0.7121 -0.4468,-1.3437 -1.2324,-1.3437 -0.8953,0 -1.4265,0.3921 -1.4265,2.366 l 3.9754,0 0,0"
       style="fill:#231f20;fill-opacity:1;fill-rule:nonzero;stroke:none"
       id="path80"
       inkscape:connector-curvature="0" /><path
       d="m 66.9688,69.2969 c 0,-1.427 0,-3.0242 -1.2879,-3.0242 -1.4407,0 -1.4407,1.541 -1.4407,2.6043 0,1.8898 0.166,2.8703 1.3985,2.8703 1.2746,0 1.3301,-1.5129 1.3301,-2.4504 l 0,0 z m 0,2.5343 -0.0418,0 c -0.3911,0.5583 -0.8832,0.8536 -1.554,0.8536 -2.2832,0 -2.3378,-2.0293 -2.3378,-3.7942 0,-3.1086 1.1484,-3.5554 2.2812,-3.5554 0.7441,0 1.2336,0.3218 1.6238,0.98 l 0.0286,0 0,-0.8406 1.1476,0 0,10.1074 -1.1476,0 0,-3.7508"
       style="fill:#231f20;fill-opacity:1;fill-rule:nonzero;stroke:none"
       id="path82"
       inkscape:connector-curvature="0" /><path
       d="m 71.3508,69.5066 c 0.0156,1.959 0.616,2.3098 1.3433,2.3098 0.8411,0 1.4164,-0.25 1.4164,-2.3098 l -2.7597,0 0,0 z m 3.9762,-0.8679 0,0.6027 c 0,2.3367 -0.504,3.4434 -2.5196,3.4434 -2.4488,0 -2.6883,-1.7075 -2.6883,-3.7793 0,-3.1235 1.1907,-3.5703 2.6883,-3.5703 1.4856,0 2.4504,0.7136 2.4633,2.2812 l -1.2602,0 c -0.0398,-0.7121 -0.4468,-1.3437 -1.2312,-1.3437 -0.8953,0 -1.4285,0.3921 -1.4285,2.366 l 3.9762,0 0,0"
       style="fill:#231f20;fill-opacity:1;fill-rule:nonzero;stroke:none"
       id="path84"
       inkscape:connector-curvature="0" /><path
       d="m 78.4219,72.5438 -1.1473,0 0,-7.0692 1.1473,0 0,4.1711 c 0,0.9539 0.3222,1.9207 1.5971,1.9207 0.21,0 0.405,-0.0437 0.615,-0.0723 l 0,1.1907 c -1.118,0 -1.707,-0.125 -2.1828,-1.2043 l -0.0293,0 0,1.0633"
       style="fill:#231f20;fill-opacity:1;fill-rule:nonzero;stroke:none"
       id="path86"
       inkscape:connector-curvature="0" /><path
       d="m 85.497,68.9895 c 0.112,-2.2833 -0.755,-2.7168 -1.455,-2.7168 -0.771,0 -1.106,0.616 -1.106,1.3027 0,1.4976 1.469,1.3992 2.561,1.4141 l 0,0 z m 0.03,-3.5149 1.259,0 c -0.086,0.5461 -0.141,1.1199 -0.141,1.6797 l 0,3.4023 c 0,1.1907 -0.477,2.1282 -2.295,2.1282 -1.498,0 -2.339,-0.5461 -2.396,-2.1282 l 1.248,0 c -0.068,0.7434 0.334,1.2598 1.105,1.2598 1.234,0 1.22,-1.0215 1.19,-1.959 -1.609,0.041 -3.709,-0.0554 -3.709,-2.198 0,-1.3594 0.433,-2.3242 1.932,-2.3242 0.884,0 1.428,0.3496 1.777,1.1628 l 0.03,0 0,-1.0234"
       style="fill:#231f20;fill-opacity:1;fill-rule:nonzero;stroke:none"
       id="path88"
       inkscape:connector-curvature="0" /><path
       d="m 90.006,75.582 -1.147,0 0,-10.1074 1.147,0 0,10.1074"
       style="fill:#231f20;fill-opacity:1;fill-rule:nonzero;stroke:none"
       id="path90"
       inkscape:connector-curvature="0" /><path
       d="m 96.444,74.4641 0.027,0 2.771,-8.9895 1.221,0 2.827,8.9895 0.026,0 0,-8.9895 1.288,0 0,10.1074 -2.127,0 -2.575,-8.4836 -0.028,0 -2.549,8.4836 -2.085,0 0,-10.1074 1.204,0 0,8.9895"
       style="fill:#231f20;fill-opacity:1;fill-rule:nonzero;stroke:none"
       id="path92"
       inkscape:connector-curvature="0" /><path
       d="m 107.875,72.5438 -1.15,0 0,-7.0692 1.15,0 0,7.0692 z m -1.221,1.8078 1.289,0 0,1.2304 -1.289,0 0,-1.2304"
       style="fill:#231f20;fill-opacity:1;fill-rule:nonzero;stroke:none"
       id="path94"
       inkscape:connector-curvature="0" /><path
       d="m 114.845,65.4746 0,4.9004 c 0,1.3996 -0.378,2.3098 -1.892,2.3098 -0.911,0 -1.443,-0.2524 -1.889,-1.05 l -0.057,0 0,0.909 -1.218,0 c 0.044,-0.4891 0.07,-0.9774 0.07,-1.4696 l 0,-5.5996 1.148,0 0,4.1875 c 0,0.9656 0.181,2.0852 1.443,2.0852 0.979,0 1.245,-0.6172 1.245,-1.3723 l 0,-4.9004 1.15,0 0,0"
       style="fill:#231f20;fill-opacity:1;fill-rule:nonzero;stroke:none"
       id="path96"
       inkscape:connector-curvature="0" /><path
       d="m 117.98,72.5438 -1.148,0 0,-7.0692 1.148,0 0,7.0692 z m -1.218,1.8078 1.289,0 0,1.2304 -1.289,0 0,-1.2304"
       style="fill:#231f20;fill-opacity:1;fill-rule:nonzero;stroke:none"
       id="path98"
       inkscape:connector-curvature="0" /><path
       d="m 124.516,67.4914 c 0,2.1543 -3.526,2.1277 -3.526,3.3738 0,0.6153 0.476,0.9512 1.091,0.9512 0.728,0 1.118,-0.3914 1.107,-1.1328 l 1.271,0 c 0.101,1.3996 -0.979,2.0012 -2.238,2.0012 -1.987,0 -2.437,-1.1907 -2.437,-1.9321 0,-2.114 3.527,-2.1422 3.527,-3.4019 0,-0.7285 -0.529,-1.0781 -1.217,-1.0781 -1.16,0 -1.177,0.9531 -1.177,1.3582 l -1.299,0 c -0.044,-1.6243 0.909,-2.2957 2.434,-2.2957 1.401,0 2.464,0.6023 2.464,2.1562 l 0,0"
       style="fill:#231f20;fill-opacity:1;fill-rule:nonzero;stroke:none"
       id="path100"
       inkscape:connector-curvature="0" /><path
       d="m 125.143,72.5438 0,-0.8668 1.162,0 0,-5.0266 c 0,-0.8113 0.491,-1.2598 1.582,-1.2598 0.379,0 0.757,0.084 1.136,0.1133 l 0,0.8801 c -0.254,-0.0278 -0.435,-0.0559 -0.521,-0.0559 -1.05,0 -1.05,0.5762 -1.05,1.0227 l 0,4.3262 1.541,0 0,0.8668 -1.541,0 0,1.8761 -1.147,-0.5168 0,-1.3593 -1.162,0 0,0"
       style="fill:#231f20;fill-opacity:1;fill-rule:nonzero;stroke:none"
       id="path102"
       inkscape:connector-curvature="0" /><path
       d="m 131.256,72.5438 -1.145,0 0,-7.0692 1.145,0 0,4.1711 c 0,0.9539 0.322,1.9207 1.599,1.9207 0.21,0 0.406,-0.0437 0.616,-0.0723 l 0,1.1907 c -1.121,0 -1.709,-0.125 -2.186,-1.2043 l -0.029,0 0,1.0633"
       style="fill:#231f20;fill-opacity:1;fill-rule:nonzero;stroke:none"
       id="path104"
       inkscape:connector-curvature="0" /><path
       d="m 135.155,72.5438 -1.328,0 2.393,-7.0692 -0.799,-2.6726 1.191,0 3.203,9.7418 -1.242,0 -1.694,-5.7516 -0.029,0 -1.695,5.7516 0,0"
       style="fill:#231f20;fill-opacity:1;fill-rule:nonzero;stroke:none"
       id="path106"
       inkscape:connector-curvature="0" /><path
       d="m 50.4902,102.402 0,-0.184 c 0,-0.857 0.5418,-1.129 1.0586,-1.129 0.6387,0 1.1289,0.272 1.1289,1.023 0,1.401 -2.8347,1.243 -2.8347,3.142 0,1.12 0.7957,1.715 1.8543,1.715 1.155,0 1.8027,-0.56 1.7507,-1.846 l -0.8406,0 c 0.009,0.691 -0.2097,1.146 -0.9707,1.146 -0.4812,0 -0.9719,-0.246 -0.9719,-0.928 0,-1.391 2.8352,-1.189 2.8352,-3.193 0,-1.33 -0.9188,-1.759 -1.9602,-1.759 -1.8628,-0.018 -1.8628,1.409 -1.8464,2.013 l 0.7968,0"
       style="fill:#000000;fill-opacity:1;fill-rule:nonzero;stroke:none"
       id="path108"
       inkscape:connector-curvature="0" /><path
       d="m 54.8391,100.521 0,6.317 1.873,0 c 0.8484,0 1.7574,-0.315 1.7574,-1.803 0,-1.435 -1.1199,-1.732 -1.7664,-1.732 l -1.0593,0 0,-2.782 -0.8047,0 z m 0.8047,3.482 0.8835,0 c 0.3332,0 1.1204,0.087 1.1204,1.076 0,0.962 -0.718,1.059 -0.8926,1.059 l -1.1113,0 0,-2.135"
       style="fill:#000000;fill-opacity:1;fill-rule:nonzero;stroke:none"
       id="path110"
       inkscape:connector-curvature="0" /><path
       d="m 59.573,102.83 0,2.073 c 0,1.261 0.6477,2.066 1.9856,2.066 1.3391,0 1.9863,-0.805 1.9863,-2.066 l 0,-2.073 c 0,-1.75 -0.6472,-2.441 -1.9863,-2.441 -1.3379,0 -1.9856,0.691 -1.9856,2.441 z m 3.1497,-0.035 0,2.135 c 0,1.321 -0.9102,1.365 -1.1641,1.365 -0.2539,0 -1.1641,-0.044 -1.1641,-1.365 l 0,-2.135 c 0,-1.383 0.4035,-1.733 1.1641,-1.733 0.7617,0 1.1641,0.35 1.1641,1.733"
       style="fill:#000000;fill-opacity:1;fill-rule:nonzero;stroke:none"
       id="path112"
       inkscape:connector-curvature="0" /><path
       d="m 69.3203,106.838 0,-6.317 -1.1023,0 -2.4946,5.476 -0.0172,0 0,-5.476 -0.7167,0 0,6.317 1.1367,0 2.459,-5.408 0.0171,0 0,5.408 0.718,0"
       style="fill:#000000;fill-opacity:1;fill-rule:nonzero;stroke:none"
       id="path114"
       inkscape:connector-curvature="0" /><path
       d="m 71.4023,102.402 0,-0.184 c 0,-0.857 0.543,-1.129 1.0586,-1.129 0.6387,0 1.1289,0.272 1.1289,1.023 0,1.401 -2.8347,1.243 -2.8347,3.142 0,1.12 0.7969,1.715 1.8554,1.715 1.1551,0 1.8016,-0.56 1.7489,-1.846 l -0.8399,0 c 0.0098,0.691 -0.2097,1.146 -0.9707,1.146 -0.4812,0 -0.9707,-0.246 -0.9707,-0.928 0,-1.391 2.834,-1.189 2.834,-3.193 0,-1.33 -0.9187,-1.759 -1.9601,-1.759 -1.8629,-0.018 -1.8629,1.409 -1.8458,2.013 l 0.7961,0"
       style="fill:#000000;fill-opacity:1;fill-rule:nonzero;stroke:none"
       id="path116"
       inkscape:connector-curvature="0" /><path
       d="m 75.6199,102.83 0,2.073 c 0,1.261 0.6477,2.066 1.9863,2.066 1.3379,0 1.9868,-0.805 1.9868,-2.066 l 0,-2.073 c 0,-1.75 -0.6489,-2.441 -1.9868,-2.441 -1.3386,0 -1.9863,0.691 -1.9863,2.441 z m 3.1508,-0.035 0,2.135 c 0,1.321 -0.9102,1.365 -1.1645,1.365 -0.2539,0 -1.1636,-0.044 -1.1636,-1.365 l 0,-2.135 c 0,-1.383 0.4019,-1.733 1.1636,-1.733 0.761,0 1.1645,0.35 1.1645,1.733"
       style="fill:#000000;fill-opacity:1;fill-rule:nonzero;stroke:none"
       id="path118"
       inkscape:connector-curvature="0" /><path
       d="m 81.78,103.425 0,-2.904 -0.805,0 0,6.317 2.178,0 c 1.12,0 1.514,-0.788 1.514,-1.575 0,-0.744 -0.411,-1.313 -1.154,-1.444 l 0,-0.017 c 0.726,-0.114 0.988,-0.359 1.032,-1.628 0.009,-0.272 0.097,-1.26 0.219,-1.653 l -0.84,0 c -0.228,0.437 -0.175,1.259 -0.245,2.099 -0.062,0.769 -0.683,0.805 -0.953,0.805 l -0.946,0 z m 0,0.7 1.208,0 c 0.577,0 0.857,0.499 0.857,1.05 0,0.455 -0.228,0.963 -0.849,0.963 l -1.216,0 0,-2.013"
       style="fill:#000000;fill-opacity:1;fill-rule:nonzero;stroke:none"
       id="path120"
       inkscape:connector-curvature="0" /><path
       d="m 85.859,100.521 0,6.317 3.253,0 0,-0.7 -2.449,0 0,-2.031 2.273,0 0,-0.7 -2.273,0 0,-2.187 2.502,0 0,-0.699 -3.306,0"
       style="fill:#000000;fill-opacity:1;fill-rule:nonzero;stroke:none"
       id="path122"
       inkscape:connector-curvature="0" /><path
       d="m 90.25,106.838 1.943,0 c 0.805,0 1.382,-0.289 1.696,-0.963 0.256,-0.534 0.281,-1.794 0.281,-1.995 0,-1.348 -0.122,-2.126 -0.385,-2.546 -0.342,-0.543 -0.979,-0.813 -2.083,-0.813 l -1.452,0 0,6.317 z m 0.805,-5.618 0.761,0 c 1.12,0 1.531,0.419 1.531,1.889 l 0,1.279 c 0,1.277 -0.393,1.75 -1.234,1.75 l -1.058,0 0,-4.918"
       style="fill:#000000;fill-opacity:1;fill-rule:nonzero;stroke:none"
       id="path124"
       inkscape:connector-curvature="0" /><path
       d="m 97.601,100.521 0,6.317 2.054,0 c 0.876,0 1.172,-0.298 1.409,-0.648 0.22,-0.342 0.254,-0.717 0.254,-0.84 0,-0.788 -0.27,-1.313 -1.084,-1.496 l 0,-0.044 c 0.9,-0.105 1.294,-0.648 1.294,-1.514 0,-1.618 -1.18,-1.775 -1.899,-1.775 l -2.028,0 z m 0.803,3.656 1.172,0 c 0.632,0.009 0.938,0.394 0.938,1.007 0,0.525 -0.298,0.954 -0.972,0.954 l -1.138,0 0,-1.961 z m 0,-2.957 1.138,0 c 0.858,0 1.165,0.612 1.165,1.076 0,1.007 -0.622,1.181 -1.444,1.181 l -0.859,0 0,-2.257"
       style="fill:#000000;fill-opacity:1;fill-rule:nonzero;stroke:none"
       id="path126"
       inkscape:connector-curvature="0" /><path
       d="m 105.641,106.838 0.814,0 -1.724,-3.912 0,-2.405 -0.805,0 0,2.405 -1.699,3.912 0.903,0 1.232,-3.055 1.279,3.055"
       style="fill:#000000;fill-opacity:1;fill-rule:nonzero;stroke:none"
       id="path128"
       inkscape:connector-curvature="0" /><path
       d="m 112.729,106.838 0,-0.7 -1.664,0 0,-5.617 -0.804,0 0,5.617 -1.663,0 0,0.7 4.131,0"
       style="fill:#000000;fill-opacity:1;fill-rule:nonzero;stroke:none"
       id="path130"
       inkscape:connector-curvature="0" /><path
       d="m 113.612,100.521 0,6.317 0.805,0 0,-2.731 2.214,0 0,2.731 0.805,0 0,-6.317 -0.805,0 0,2.886 -2.214,0 0,-2.886 -0.805,0"
       style="fill:#000000;fill-opacity:1;fill-rule:nonzero;stroke:none"
       id="path132"
       inkscape:connector-curvature="0" /><path
       d="m 118.905,100.521 0,6.317 3.256,0 0,-0.7 -2.45,0 0,-2.031 2.275,0 0,-0.7 -2.275,0 0,-2.187 2.502,0 0,-0.699 -3.308,0"
       style="fill:#000000;fill-opacity:1;fill-rule:nonzero;stroke:none"
       id="path134"
       inkscape:connector-curvature="0" /></g></svg>